External Loads File
version=1
nRows=85
nColumns=13
Range=5.000000e-03-10 seconds
endheader
time 	forceRightX 	forceRightY 	forceRightZ 	pointRightX 	pointRightY 	pointRightZ 	forceLeftX 	forceLeftY 	forceLeftZ 	pointLeftX 	pointLeftY 	pointLeftZ 		
7.505000 145.322123 219.613049 -0.000000 0.166665 0.158382 -0.156500 -24.393584 127.068075 -0.000000 0.273203 0.495132 -0.400165
7.510000 137.470343 181.899587 -0.000000 0.158955 0.162074 -0.156497 -29.558907 138.406520 -0.000000 0.279762 0.490999 -0.400650
7.515000 128.095925 143.548060 -0.000000 0.151557 0.166442 -0.156672 -37.199115 152.066764 -0.000000 0.286136 0.486264 -0.401346
7.520000 117.675874 106.134209 -0.000000 0.144465 0.171402 -0.157066 -47.343983 168.643545 -0.000000 0.292227 0.480716 -0.401891
7.525000 106.783749 71.122980 -0.000000 0.137706 0.176934 -0.157131 -59.853166 188.392880 -0.000000 0.298216 0.474396 -0.402377
7.530000 95.853598 39.903885 -0.000000 0.131337 0.182845 -0.157012 -74.729902 211.037138 -0.000000 0.303978 0.467452 -0.402840
7.535000 85.353892 13.333317 -0.000000 0.125199 0.189089 -0.156948 -91.508831 235.958996 -0.000000 0.309783 0.460011 -0.403044
7.540000 75.564960 -8.061108 -0.000000 0.119502 0.195761 -0.156763 -109.667627 262.206750 -0.000000 0.315697 0.452009 -0.403311
7.545000 66.668131 -24.189293 -0.000000 0.114133 0.202878 -0.156605 -128.464288 288.727244 -0.000000 0.321565 0.443400 -0.403799
7.550000 58.782033 -35.260039 -0.000000 0.109126 0.210297 -0.156522 -147.279758 314.421057 -0.000000 0.327422 0.434358 -0.404281
7.555000 52.053983 -41.683463 -0.000000 0.104701 0.217977 -0.156516 -166.061535 338.128808 -0.000000 0.332813 0.425049 -0.404477
7.560000 46.489297 -44.243541 -0.000000 0.100636 0.225957 -0.156567 -184.170824 359.347367 -0.000000 0.338175 0.415873 -0.404004
7.565000 42.048851 -43.800924 -0.000000 0.097152 0.234129 -0.156421 -201.823512 377.614572 -0.000000 0.342922 0.406558 -0.403609
7.570000 38.375384 -41.500249 -0.000000 0.094243 0.242676 -0.156074 -217.814693 393.676401 -0.000000 0.347407 0.396541 -0.403622
7.575000 35.217062 -38.278080 -0.000000 0.091855 0.251542 -0.155854 -232.591603 407.766489 -0.000000 0.351520 0.386395 -0.403957
7.580000 32.172815 -35.005197 -0.000000 0.089864 0.260736 -0.155739 -245.660848 420.811972 -0.000000 0.355356 0.376013 -0.403565
7.585000 28.892851 -32.208429 -0.000000 0.088355 0.270245 -0.155802 -257.147125 433.446074 -0.000000 0.358468 0.365434 -0.403606
7.590000 25.055495 -30.130930 -0.000000 0.087343 0.280086 -0.155890 -266.539806 446.649614 -0.000000 0.361047 0.354564 -0.403798
7.595000 20.566084 -28.690903 -0.000000 0.086776 0.290184 -0.156086 -273.880843 460.938826 -0.000000 0.363046 0.343584 -0.403868
7.600000 15.539650 -27.653704 -0.000000 0.086616 0.300341 -0.156503 -279.148349 476.627527 -0.000000 0.364504 0.332556 -0.403887
7.605000 10.234908 -26.777613 -0.000000 0.086998 0.310651 -0.156953 -281.794550 494.090382 -0.000000 0.365291 0.321483 -0.403997
7.610000 5.006750 -25.874704 -0.000000 0.087719 0.321171 -0.157278 -281.313308 513.438157 -0.000000 0.365415 0.310414 -0.404054
7.615000 0.233169 -24.874483 -0.000000 0.089092 0.331768 -0.157474 -277.959849 534.169579 -0.000000 0.364850 0.299568 -0.404018
7.620000 -3.873117 -23.858378 -0.000000 0.090648 0.342638 -0.157765 -270.878470 556.247357 -0.000000 0.363841 0.288779 -0.404381
7.625000 -7.174640 -22.990902 -0.000000 0.092602 0.353390 -0.157984 -260.470554 578.877751 -0.000000 0.361764 0.278100 -0.403960
7.630000 -9.672467 -22.447567 -0.000000 0.095376 0.364222 -0.158112 -246.359332 601.585308 -0.000000 0.359208 0.267632 -0.403893
7.635000 -11.462373 -22.376066 -0.000000 0.098623 0.375200 -0.158222 -228.283519 623.749001 -0.000000 0.356014 0.257310 -0.403821
7.640000 -12.678161 -22.906489 -0.000000 0.102134 0.385612 -0.158697 -208.155904 643.971068 -0.000000 0.352220 0.247246 -0.403731
7.645000 -13.628373 -24.031841 -0.000000 0.106280 0.395887 -0.158976 -184.931756 662.004841 -0.000000 0.347870 0.237412 -0.403611
7.650000 -14.545566 -25.713524 -0.000000 0.111031 0.405958 -0.159208 -159.501715 676.983575 -0.000000 0.342983 0.228091 -0.403379
7.655000 -15.629860 -27.857340 -0.000000 0.116264 0.415608 -0.159365 -132.372849 688.308541 -0.000000 0.337552 0.219143 -0.403127
7.660000 -17.053668 -30.306079 -0.000000 0.121855 0.425067 -0.159601 -103.736249 695.583868 -0.000000 0.331620 0.210556 -0.402849
7.665000 -18.941029 -32.845254 -0.000000 0.127918 0.434102 -0.159980 -74.614235 698.481547 -0.000000 0.325240 0.202429 -0.402694
7.670000 -21.423737 -35.152070 -0.000000 0.134566 0.442728 -0.160155 -45.499835 697.022516 -0.000000 0.318430 0.194798 -0.402500
7.675000 -24.448006 -36.907593 -0.000000 0.140541 0.450880 -0.161345 -19.469199 691.305458 -0.000000 0.311270 0.187587 -0.402339
7.680000 -28.280131 -37.493577 -0.000000 0.148657 0.458764 -0.160450 7.938973 681.801315 -0.000000 0.303750 0.180895 -0.402191
7.685000 -32.551708 -36.649653 -0.000000 0.156318 0.465896 -0.161490 30.994104 668.792600 -0.000000 0.295952 0.174734 -0.402031
7.690000 -37.168880 -33.892211 -0.000000 0.164246 0.472307 -0.161598 51.145887 652.847688 -0.000000 0.287819 0.169139 -0.401893
7.695000 -41.896554 -28.852634 -0.000000 0.172352 0.478215 -0.162284 68.886506 634.466928 -0.000000 0.279418 0.164153 -0.401761
7.700000 -46.490423 -21.233902 -0.000000 0.181221 0.483524 -0.162628 85.862276 613.864700 -0.000000 0.270758 0.159747 -0.401607
7.705000 -50.541431 -11.160240 -0.000000 0.189752 0.488172 -0.162787 100.621082 591.416637 -0.000000 0.261841 0.155995 -0.401471
7.710000 -53.729604 1.264355 -0.000000 0.198798 0.492172 -0.162993 114.954544 566.787185 -0.000000 0.252733 0.152882 -0.401323
7.715000 -55.682358 15.527717 -0.000000 0.207880 0.495572 -0.163139 128.183431 539.761607 -0.000000 0.243439 0.150502 -0.401103
7.720000 -56.143642 30.972210 -0.000000 0.216836 0.498328 -0.163340 139.872953 510.039778 -0.000000 0.234068 0.148764 -0.400881
7.725000 -54.993292 46.913405 -0.000000 0.225625 0.500601 -0.163592 149.682328 477.406878 -0.000000 0.224693 0.147651 -0.400659
7.730000 -52.338564 62.723589 -0.000000 0.234043 0.502152 -0.163823 156.836984 441.993036 -0.000000 0.215489 0.147338 -0.400522
7.735000 -48.378663 78.135599 -0.000000 0.242344 0.503004 -0.163925 161.522933 403.834585 -0.000000 0.206422 0.147738 -0.400326
7.740000 -43.534585 93.156189 -0.000000 0.250397 0.503110 -0.164175 163.384715 363.365496 -0.000000 0.197517 0.148918 -0.400132
7.745000 -38.476837 108.086073 -0.000000 0.257970 0.502445 -0.164155 161.903245 321.402276 -0.000000 0.189079 0.150797 -0.399824
7.750000 -33.675975 123.580952 -0.000000 0.265338 0.501107 -0.163969 157.762041 278.469533 -0.000000 0.180927 0.153392 -0.399504
7.755000 -29.613567 140.372639 -0.000000 0.272462 0.498474 -0.163705 151.446979 235.386423 -0.000000 0.172948 0.156612 -0.399277
7.760000 -26.947197 159.143541 -0.000000 0.279233 0.495294 -0.163414 143.142310 193.458902 -0.000000 0.165262 0.160398 -0.399083
7.765000 -25.954179 180.505549 -0.000000 0.285858 0.491192 -0.162887 133.632046 153.790511 -0.000000 0.157841 0.164766 -0.398954
7.770000 -27.092445 204.745139 -0.000000 0.292147 0.486263 -0.162397 123.354226 117.633088 -0.000000 0.150709 0.169582 -0.398837
7.775000 -30.464661 231.792302 -0.000000 0.298301 0.480567 -0.161513 112.921415 85.782140 -0.000000 0.143831 0.174945 -0.398807
7.780000 -36.148977 261.108766 -0.000000 0.304277 0.474005 -0.160902 102.748908 58.827635 -0.000000 0.137173 0.180712 -0.398826
7.785000 -44.246474 291.745793 -0.000000 0.309989 0.466735 -0.160154 93.159084 37.112154 -0.000000 0.130865 0.186943 -0.398832
7.790000 -54.129566 322.616455 -0.000000 0.315811 0.458811 -0.159187 84.477812 20.473491 -0.000000 0.124820 0.193641 -0.398944
7.795000 -65.383737 352.533297 -0.000000 0.321756 0.450514 -0.159399 76.845783 8.614289 -0.000000 0.119126 0.200863 -0.399010
7.800000 -78.502924 380.195295 -0.000000 0.327240 0.442274 -0.159685 70.324047 1.191862 -0.000000 0.113794 0.208293 -0.399140
7.805000 -92.108845 404.885428 -0.000000 0.332328 0.433291 -0.159679 64.923785 -2.666884 -0.000000 0.108912 0.216179 -0.399453
7.810000 -105.426786 426.178995 -0.000000 0.337212 0.423734 -0.159620 60.558889 -3.698357 -0.000000 0.104461 0.224459 -0.399644
7.815000 -118.146859 443.957973 -0.000000 0.342243 0.413942 -0.159925 57.148001 -2.521763 -0.000000 0.100425 0.232854 -0.399851
7.820000 -129.835118 458.493959 -0.000000 0.346283 0.403669 -0.159918 54.638332 0.305575 -0.000000 0.096793 0.241877 -0.400035
7.825000 -140.816530 470.108253 -0.000000 0.349875 0.393399 -0.159202 52.964684 4.370306 -0.000000 0.093677 0.251018 -0.400116
7.830000 -150.107190 479.683864 -0.000000 0.353368 0.382991 -0.159504 52.007883 9.145222 -0.000000 0.091158 0.260441 -0.400082
7.835000 -157.373820 488.063905 -0.000000 0.356283 0.372313 -0.159350 51.644668 14.234710 -0.000000 0.088941 0.270146 -0.400010
7.840000 -162.707033 495.991859 -0.000000 0.358663 0.361528 -0.159177 51.786814 19.320520 -0.000000 0.086830 0.279982 -0.399354
7.845000 -165.713282 504.257671 -0.000000 0.360493 0.350547 -0.158871 52.368867 24.048356 -0.000000 0.085636 0.290163 -0.399321
7.850000 -166.533011 513.246556 -0.000000 0.361698 0.339604 -0.158663 53.248516 28.136558 -0.000000 0.085045 0.300484 -0.399401
7.855000 -164.430649 523.340123 -0.000000 0.362264 0.328663 -0.158449 54.272633 31.230177 -0.000000 0.084773 0.311037 -0.399404
7.860000 -159.171404 534.455199 -0.000000 0.362234 0.317683 -0.158125 55.230965 33.050062 -0.000000 0.085080 0.321706 -0.399295
7.865000 -150.251864 546.321275 -0.000000 0.361566 0.306643 -0.157726 55.900390 33.335112 -0.000000 0.085999 0.332536 -0.399305
7.870000 -137.539543 558.333081 -0.000000 0.360424 0.295573 -0.157212 56.034757 31.936200 -0.000000 0.087478 0.343529 -0.399275
7.875000 -122.610676 569.366314 -0.000000 0.358473 0.284960 -0.157082 55.338633 28.965922 -0.000000 0.089459 0.354329 -0.399202
7.880000 -103.603220 579.093678 -0.000000 0.355863 0.274242 -0.157123 53.779431 24.283216 -0.000000 0.091989 0.365393 -0.399108
7.885000 -82.777321 586.386281 -0.000000 0.352801 0.263644 -0.156906 51.189088 18.219256 -0.000000 0.095146 0.376061 -0.399111
7.890000 -60.468258 590.724308 -0.000000 0.349212 0.253322 -0.156917 47.574162 10.993143 -0.000000 0.098795 0.386637 -0.399088
7.895000 -37.787779 591.670125 -0.000000 0.345077 0.243523 -0.156843 42.996743 2.962763 -0.000000 0.103037 0.397047 -0.399045
7.900000 -15.335430 589.077654 -0.000000 0.340463 0.234025 -0.156765 37.602718 -5.541743 -0.000000 0.107751 0.407200 -0.398932
7.905000 6.059438 583.020215 -0.000000 0.335283 0.224977 -0.156729 31.568077 -14.203687 -0.000000 0.112939 0.417022 -0.398880
7.910000 26.173249 573.779794 -0.000000 0.329649 0.216181 -0.156752 25.041963 -22.756355 -0.000000 0.118710 0.426448 -0.398849
7.915000 44.283250 561.789407 -0.000000 0.323585 0.207792 -0.156656 18.145599 -30.862616 -0.000000 0.124857 0.435541 -0.398815
7.920000 60.153155 547.553719 -0.000000 0.317075 0.199860 -0.156509 10.983834 -38.122307 -0.000000 0.131295 0.444312 -0.398684
7.925000 74.023973 531.566684 -0.000000 0.310160 0.192464 -0.156307 3.671010 -44.051231 -0.000000 0.138391 0.452498 -0.398492
